<svg width="47" height="53" viewBox="0 0 47 53" fill="none" xmlns="http://www.w3.org/2000/svg">
<ellipse cx="23.5" cy="28" rx="23.5" ry="23" fill="#7161EF"/>
<path d="M34.5146 26.528C36.4346 27.136 37.9386 28.16 39.0266 29.6C40.1146 31.008 40.6586 32.752 40.6586 34.832C40.6586 37.776 39.5066 40.048 37.2026 41.648C34.9306 43.216 31.6026 44 27.2186 44H9.84261V10.4H26.2586C30.3546 10.4 33.4906 11.184 35.6666 12.752C37.8746 14.32 38.9786 16.448 38.9786 19.136C38.9786 20.768 38.5786 22.224 37.7786 23.504C37.0106 24.784 35.9226 25.792 34.5146 26.528ZM17.5706 16.256V24.176H25.2986C27.2186 24.176 28.6746 23.84 29.6666 23.168C30.6586 22.496 31.1546 21.504 31.1546 20.192C31.1546 18.88 30.6586 17.904 29.6666 17.264C28.6746 16.592 27.2186 16.256 25.2986 16.256H17.5706ZM26.6426 38.144C28.6906 38.144 30.2266 37.808 31.2506 37.136C32.3066 36.464 32.8346 35.424 32.8346 34.016C32.8346 31.232 30.7706 29.84 26.6426 29.84H17.5706V38.144H26.6426Z" fill="black"/>
</svg>
