<svg width="411" height="304" viewBox="0 0 411 304" fill="none" xmlns="http://www.w3.org/2000/svg">
<g clip-path="url(#clip0)">
<path d="M238.238 302.371C238.179 302.277 236.757 299.994 236.264 295.253C235.812 290.903 236.103 283.572 240.054 273.345C247.54 253.971 238.329 238.34 238.235 238.184L238.69 237.93C240.463 241.196 241.744 244.688 242.494 248.302C244.35 256.715 243.674 265.464 240.547 273.521C233.074 292.862 238.63 302.018 238.687 302.108L238.238 302.371Z" fill="#F2F2F2"/>
<path d="M235.311 237.047C237.197 237.047 238.725 235.576 238.725 233.762C238.725 231.947 237.197 230.477 235.311 230.477C233.426 230.477 231.897 231.947 231.897 233.762C231.897 235.576 233.426 237.047 235.311 237.047Z" fill="#F2F2F2"/>
<path d="M246.078 249.175C247.964 249.175 249.492 247.705 249.492 245.89C249.492 244.076 247.964 242.605 246.078 242.605C244.193 242.605 242.664 244.076 242.664 245.89C242.664 247.705 244.193 249.175 246.078 249.175Z" fill="#F2F2F2"/>
<path d="M238.725 257.262C240.61 257.262 242.139 255.791 242.139 253.977C242.139 252.162 240.61 250.692 238.725 250.692C236.839 250.692 235.311 252.162 235.311 253.977C235.311 255.791 236.839 257.262 238.725 257.262Z" fill="#F2F2F2"/>
<path d="M247.654 264.084C249.539 264.084 251.068 262.613 251.068 260.799C251.068 258.985 249.539 257.514 247.654 257.514C245.768 257.514 244.24 258.985 244.24 260.799C244.24 262.613 245.768 264.084 247.654 264.084Z" fill="#F2F2F2"/>
<path d="M236.099 274.697C237.984 274.697 239.513 273.226 239.513 271.412C239.513 269.598 237.984 268.127 236.099 268.127C234.213 268.127 232.685 269.598 232.685 271.412C232.685 273.226 234.213 274.697 236.099 274.697Z" fill="#F2F2F2"/>
<path d="M240.3 302.491C240.3 302.491 236.886 294.405 247.128 288.34L240.3 302.491Z" fill="#F2F2F2"/>
<path d="M236.102 302.346C236.102 302.346 234.549 293.747 222.523 293.821L236.102 302.346Z" fill="#F2F2F2"/>
<path d="M59.1709 63.3926C56.4412 63.3926 53.7727 62.6137 51.503 61.1544C49.2333 59.6952 47.4643 57.621 46.4196 55.1944C45.375 52.7677 45.1017 50.0975 45.6342 47.5213C46.1668 44.9452 47.4813 42.5788 49.4115 40.7215C51.3417 38.8642 53.801 37.5994 56.4783 37.087C59.1556 36.5745 61.9307 36.8375 64.4527 37.8427C66.9746 38.8479 69.1302 40.55 70.6468 42.734C72.1633 44.9179 72.9728 47.4856 72.9728 50.1122C72.9728 53.6344 71.5187 57.0123 68.9303 59.5028C66.342 61.9934 62.8314 63.3926 59.1709 63.3926ZM59.1709 37.2901C56.5353 37.2901 53.9588 38.0422 51.7673 39.4511C49.5759 40.8601 47.8678 42.8627 46.8592 45.2057C45.8506 47.5487 45.5867 50.1269 46.1009 52.6143C46.6151 55.1016 47.8843 57.3864 49.7479 59.1796C51.6116 60.9729 53.9861 62.1941 56.5711 62.6889C59.1561 63.1837 61.8356 62.9297 64.2706 61.9592C66.7056 60.9887 68.7869 59.3452 70.2511 57.2365C71.7154 55.1279 72.497 52.6488 72.497 50.1127C72.497 48.4288 72.1523 46.7614 71.4826 45.2057C70.8129 43.65 69.8313 42.2364 68.5939 41.0458C67.3564 39.8551 65.8874 38.9106 64.2706 38.2662C62.6538 37.6218 60.9209 37.2901 59.1709 37.2901Z" fill="#3F3D56"/>
<path d="M199.08 63.3926C196.35 63.3926 193.682 62.6137 191.412 61.1544C189.143 59.6952 187.374 57.621 186.329 55.1944C185.284 52.7677 185.011 50.0975 185.544 47.5213C186.076 44.9452 187.391 42.5788 189.321 40.7215C191.251 38.8642 193.71 37.5994 196.388 37.087C199.065 36.5745 201.84 36.8375 204.362 37.8427C206.884 38.8479 209.039 40.55 210.556 42.734C212.073 44.9179 212.882 47.4856 212.882 50.1122C212.882 53.6344 211.428 57.0123 208.84 59.5028C206.251 61.9934 202.741 63.3926 199.08 63.3926ZM199.08 37.2901C196.445 37.2901 193.868 38.0422 191.677 39.4511C189.485 40.8601 187.777 42.8627 186.769 45.2057C185.76 47.5487 185.496 50.1269 186.01 52.6143C186.524 55.1016 187.794 57.3864 189.657 59.1796C191.521 60.9729 193.895 62.1941 196.48 62.6889C199.065 63.1837 201.745 62.9297 204.18 61.9592C206.615 60.9887 208.696 59.3452 210.16 57.2365C211.625 55.1279 212.406 52.6488 212.406 50.1127C212.406 48.4288 212.062 46.7614 211.392 45.2057C210.722 43.65 209.741 42.2364 208.503 41.0458C207.266 39.8551 205.797 38.9106 204.18 38.2662C202.563 37.6218 200.83 37.2901 199.08 37.2901Z" fill="#3F3D56"/>
<path d="M249.613 32.5696H9.18001C4.49945 32.5773 0.70642 37.0862 0.700012 42.6509V152.948C0.70642 158.512 4.49945 163.019 9.18001 163.029H249.613C254.294 163.021 258.087 158.512 258.093 152.948V42.6504C258.087 37.0862 254.294 32.5794 249.613 32.5691V32.5696ZM257.097 152.948C257.091 157.858 253.745 161.837 249.614 161.843H9.18001C5.04948 161.836 1.70394 157.858 1.69753 152.948V42.6504C1.70234 37.7403 5.04948 33.7612 9.18001 33.7555H249.613C253.744 33.7617 257.089 37.7403 257.096 42.6504L257.097 152.948Z" fill="#3F3D56"/>
<path d="M61.0426 76.9314H18.3222V105.706H61.0426V76.9314Z" fill="#F2F2F2"/>
<path d="M120.851 76.9314H78.1307V105.706H120.851V76.9314Z" fill="#F2F2F2"/>
<path d="M180.66 76.9314H137.939V105.706H180.66V76.9314Z" fill="#F2F2F2"/>
<path d="M240.468 76.9314H197.748V105.706H240.468V76.9314Z" fill="#F2F2F2"/>
<path d="M61.0426 119.065H18.3222V147.84H61.0426V119.065Z" fill="#F2F2F2"/>
<path d="M120.851 119.065H78.1307V147.84H120.851V119.065Z" fill="#F2F2F2"/>
<path d="M180.66 119.065H137.939V147.84H180.66V119.065Z" fill="#F2F2F2"/>
<path d="M240.468 119.065H197.748V147.84H240.468V119.065Z" fill="#F2F2F2"/>
<path d="M92.3614 147.672L82.2767 134.271L85.0236 132.358L92.7432 142.615L122.283 113.413L124.712 115.689L92.3614 147.672Z" fill="#6C63FF"/>
<path d="M152.704 105.538L142.619 92.1371L145.366 90.2236L153.086 100.481L182.625 71.2793L185.055 73.5556L152.704 105.538Z" fill="#6C63FF"/>
<path d="M59.353 0.849976H58.623V50.1723H59.353V0.849976Z" fill="#2F2E41"/>
<path d="M199.796 0.849976H199.066V50.1723H199.796V0.849976Z" fill="#2F2E41"/>
<path d="M409.417 303.248H206.895C206.795 303.255 206.695 303.241 206.6 303.209C206.505 303.176 206.419 303.125 206.345 303.059C206.272 302.993 206.213 302.913 206.173 302.825C206.133 302.736 206.113 302.64 206.113 302.543C206.113 302.447 206.133 302.351 206.173 302.262C206.213 302.174 206.272 302.094 206.345 302.028C206.419 301.962 206.505 301.911 206.6 301.878C206.695 301.846 206.795 301.832 206.895 301.838H409.417C409.518 301.832 409.618 301.846 409.713 301.878C409.808 301.911 409.894 301.962 409.968 302.028C410.041 302.094 410.099 302.174 410.139 302.262C410.179 302.351 410.2 302.447 410.2 302.543C410.2 302.64 410.179 302.736 410.139 302.825C410.099 302.913 410.041 302.993 409.968 303.059C409.894 303.125 409.808 303.176 409.713 303.209C409.618 303.241 409.518 303.255 409.417 303.248Z" fill="#3F3D56"/>
<path d="M33.0869 105.538L23.0022 92.1371L25.7491 90.2236L33.4687 100.481L63.0082 71.2793L65.438 73.5556L33.0869 105.538Z" fill="#6C63FF"/>
<path d="M351.14 192.398C351.424 192.317 351.713 192.257 352.006 192.22L363.701 169.354L360.13 164.204L367.503 158.004L376.772 168.917L357.894 195.353C358.36 196.353 358.498 197.466 358.29 198.543C358.082 199.62 357.538 200.611 356.731 201.384C355.923 202.156 354.89 202.674 353.769 202.868C352.649 203.062 351.493 202.923 350.456 202.469C349.42 202.016 348.551 201.269 347.966 200.329C347.381 199.389 347.108 198.3 347.182 197.206C347.256 196.113 347.675 195.067 348.382 194.208C349.089 193.349 350.051 192.718 351.14 192.398Z" fill="#FFB8B8"/>
<path d="M371.103 161.166C370.944 161.328 370.761 161.466 370.56 161.577L358.595 168.251C358.044 168.559 357.388 168.643 356.772 168.485C356.157 168.328 355.631 167.941 355.311 167.411C355.278 167.355 355.247 167.298 355.218 167.24L349.398 155.41C349.15 154.913 349.097 154.346 349.248 153.813C349.398 153.281 349.743 152.818 350.219 152.51L357.635 147.655C358.098 147.352 358.657 147.214 359.214 147.265C359.772 147.316 360.293 147.553 360.689 147.935L371.055 157.945C371.497 158.37 371.749 158.945 371.757 159.546C371.766 160.148 371.531 160.729 371.101 161.166L371.103 161.166Z" fill="#CCCCCC"/>
<path d="M387.903 292.177L381.586 293.831L371.949 271.172L381.273 268.731L387.903 292.177Z" fill="#FFB8B8"/>
<path d="M376.584 293.273L388.767 290.084L390.853 297.463L371 302.66C370.446 300.703 370.723 298.614 371.771 296.853C372.818 295.092 374.549 293.804 376.583 293.271H376.583L376.584 293.273Z" fill="#2F2E41"/>
<path d="M333.898 296.816H327.351L324.236 272.518H333.898V296.816Z" fill="#FFB8B8"/>
<path d="M322.675 295.015H335.301V302.665H314.725C314.725 301.661 314.931 300.666 315.33 299.738C315.73 298.81 316.315 297.967 317.053 297.256C317.792 296.546 318.668 295.982 319.632 295.598C320.597 295.213 321.631 295.015 322.675 295.015H322.675Z" fill="#2F2E41"/>
<path d="M340.796 139.59C348.04 139.59 353.912 133.939 353.912 126.969C353.912 120 348.04 114.349 340.796 114.349C333.553 114.349 327.68 120 327.68 126.969C327.68 133.939 333.553 139.59 340.796 139.59Z" fill="#FFB8B8"/>
<path d="M333.497 279.492H324.551C323.939 279.491 323.35 279.267 322.904 278.864C322.458 278.461 322.187 277.909 322.148 277.322C319.482 236.544 321.042 207.293 327.056 185.268C327.082 185.172 327.114 185.077 327.153 184.984L327.633 183.832C327.811 183.402 328.118 183.033 328.516 182.774C328.914 182.514 329.384 182.377 329.865 182.378H348.263C348.609 182.378 348.952 182.45 349.267 182.589C349.582 182.729 349.862 182.932 350.087 183.185L352.586 185.991C352.634 186.045 352.68 186.101 352.724 186.16C363.992 201.28 374.09 230.839 385.786 270.571C385.958 271.148 385.89 271.767 385.595 272.297C385.3 272.827 384.801 273.224 384.206 273.405L374.594 276.366C374.042 276.533 373.446 276.504 372.914 276.284C372.383 276.064 371.951 275.668 371.697 275.168L346.747 225.374C346.572 225.026 346.286 224.742 345.93 224.562C345.574 224.383 345.168 224.319 344.771 224.379C344.375 224.44 344.009 224.621 343.728 224.897C343.447 225.173 343.266 225.529 343.211 225.912L335.878 277.492C335.798 278.046 335.513 278.552 335.076 278.919C334.638 279.287 334.078 279.49 333.497 279.492Z" fill="#2F2E41"/>
<path d="M351.578 186.196H351.502L329.154 185.516C328.579 185.501 328.029 185.287 327.605 184.914C327.181 184.541 326.91 184.034 326.842 183.484C324.012 161.42 331.778 155.509 335.25 153.991C335.541 153.865 335.792 153.669 335.98 153.422C336.168 153.175 336.287 152.885 336.325 152.581L336.625 150.269C336.677 149.861 336.841 149.473 337.1 149.146C342.544 142.361 349.977 140.188 353.921 139.497C354.548 139.389 355.193 139.524 355.715 139.874C356.238 140.224 356.595 140.758 356.707 141.361C356.714 141.399 356.72 141.437 356.725 141.475L357.176 144.796C357.221 145.113 357.353 145.413 357.556 145.665C368.909 159.945 356.262 181.03 353.611 185.112C353.395 185.443 353.095 185.717 352.739 185.906C352.384 186.096 351.984 186.196 351.578 186.196Z" fill="#CCCCCC"/>
<path d="M344.546 213.775L327.661 216.905L327.02 213.701L339.944 211.304L324.922 173.203L328.093 172.046L344.546 213.775Z" fill="#6C63FF"/>
<path d="M367.258 128.39C364.332 124.426 360.823 120.892 356.842 117.898C353.531 115.41 349.846 113.285 345.783 112.268C341.72 111.252 337.229 111.425 333.521 113.321C329.813 115.218 325.978 118.986 325.954 123.027C325.947 124.325 326.29 126.082 327.619 125.857L328.003 125.908L337.619 124.04L341.715 137.716C342.002 138.677 342.388 139.751 343.336 140.16C344.229 140.546 345.259 140.183 346.167 139.82C346.315 139.76 347.591 137.003 347.591 137.003C347.623 136.917 347.679 136.84 347.752 136.782C347.824 136.723 347.912 136.684 348.006 136.669C348.1 136.654 348.196 136.663 348.285 136.696C348.374 136.729 348.452 136.784 348.511 136.855L349.27 137.767C349.414 137.942 349.614 138.066 349.839 138.122C350.063 138.177 350.301 138.161 350.515 138.075L366.197 131.776C366.919 131.486 367.726 131.108 367.936 130.381C368.133 129.682 367.691 128.979 367.258 128.39Z" fill="#2F2E41"/>
<path d="M349.494 217.558C350.18 217.094 350.753 216.492 351.171 215.792C351.589 215.093 351.843 214.314 351.915 213.51C351.986 212.706 351.874 211.897 351.585 211.139C351.297 210.381 350.839 209.694 350.244 209.125L354.395 160.891L342.036 162.527L341.801 209.389C340.872 210.413 340.366 211.729 340.379 213.088C340.392 214.448 340.923 215.755 341.872 216.763C342.82 217.77 344.12 218.408 345.524 218.554C346.928 218.701 348.34 218.347 349.491 217.558L349.494 217.558Z" fill="#FFB8B8"/>
<path d="M355.203 167.837C354.972 167.837 354.741 167.805 354.519 167.742L341.252 163.987C340.949 163.901 340.667 163.759 340.421 163.568C340.175 163.378 339.971 163.142 339.82 162.876C339.669 162.609 339.574 162.316 339.54 162.015C339.507 161.713 339.535 161.407 339.624 161.116C339.643 161.055 339.664 160.994 339.689 160.934L344.599 148.729C344.803 148.213 345.194 147.785 345.699 147.524C346.204 147.262 346.79 147.184 347.35 147.304L356.116 149.138C356.663 149.252 357.152 149.547 357.497 149.971C357.842 150.395 358.023 150.922 358.008 151.461L357.6 165.587C357.583 166.188 357.323 166.759 356.875 167.179C356.428 167.599 355.828 167.835 355.203 167.836V167.837Z" fill="#CCCCCC"/>
</g>
<defs>
<clipPath id="clip0">
<rect width="409.5" height="302.4" fill="white" transform="translate(0.700012 0.849976)"/>
</clipPath>
</defs>
</svg>
